<svg data-v-423bf9ae="" xmlns="http://www.w3.org/2000/svg" viewBox="0 0 77.64635488423464 60" class="icon"><!----><!----><!----><!----><g data-v-423bf9ae="" id="5ee4db2c-c3df-413f-af9d-efd646ab14e8" transform="matrix(1.2931034057517412,0,0,1.2931034057517412,-25.813576348510168,-34.78448112144204)" stroke="none" fill="black"><path d="M79.9 28.8c-.2-.4-.5-.6-.9-.6H58.6c-.3 0-.5.1-.7.3l-8.2 7.6-6-8.8c-.2-.3-.5-.4-.8-.4H33c-.2 0-.5.1-.7.3l-12 11c-.3.3-.4.7-.3 1.1.1.4.5.6.9.6h12.9L35.4 50c0 .3.2.6.5.7L51.8 60c.2.1.3.1.5.1h10.5L76.9 73c.2.2.4.3.7.3.2 0 .4 0 .5-.1.4-.2.6-.7.5-1.1L75.2 59c0-.2-.2-.4-.3-.5L63.4 48.2l16.4-18.3c.2-.3.3-.7.1-1.1zm-37.6 0l5.9 8.6-11.1 10.4-2.9-18.9h8.1zm-18.7 9l8.8-8 1.2 8h-10zM65.8 60h7.7l2.3 9.1-10-9.1zm5.8-2h-17l7.5-8.4 9.5 8.4zm-19.5-.2l-14-8.2L59 30.2h17.8L52.1 57.8z"></path></g><!----></svg>